<?xml version="1.0" encoding="UTF-8"?> <!-- Generator: Adobe Illustrator 23.0.1, SVG Export Plug-In . SVG Version: 6.00 Build 0) --> <svg xmlns="http://www.w3.org/2000/svg" xmlns:xlink="http://www.w3.org/1999/xlink" id="Layer_1" x="0px" y="0px" width="280px" height="70px" viewBox="0 0 280 70" xml:space="preserve"> <g> <path fill="#21324D" d="M87.84,45.59c-1.612-0.468-2.907-1.076-3.884-1.825l1.716-3.805c0.935,0.687,2.047,1.237,3.337,1.654 c1.29,0.415,2.579,0.623,3.869,0.623c1.434,0,2.495-0.213,3.182-0.64c0.685-0.425,1.029-0.993,1.029-1.699 c0-0.52-0.203-0.952-0.609-1.295c-0.405-0.343-0.925-0.618-1.559-0.826c-0.635-0.208-1.493-0.437-2.574-0.687 c-1.664-0.395-3.026-0.789-4.086-1.185c-1.061-0.395-1.971-1.029-2.73-1.903c-0.759-0.873-1.138-2.038-1.138-3.494 c0-1.268,0.344-2.417,1.029-3.446c0.687-1.029,1.721-1.845,3.104-2.448c1.382-0.603,3.072-0.905,5.068-0.905 c1.394,0,2.755,0.166,4.087,0.499c1.33,0.333,2.495,0.811,3.493,1.435l-1.56,3.836c-2.017-1.142-4.034-1.715-6.05-1.715 c-1.415,0-2.46,0.228-3.135,0.685c-0.676,0.458-1.014,1.061-1.014,1.81c0,0.749,0.39,1.305,1.17,1.669 c0.779,0.364,1.97,0.722,3.57,1.076c1.664,0.395,3.026,0.789,4.087,1.184c1.061,0.396,1.97,1.019,2.729,1.872 s1.138,2.007,1.138,3.462c0,1.248-0.348,2.386-1.045,3.415s-1.741,1.845-3.135,2.448c-1.394,0.603-3.088,0.905-5.084,0.905 C91.119,46.292,89.45,46.058,87.84,45.59z"></path> <path fill="#21324D" d="M123.102,41.862v4.055h-16.906V24.083h16.501v4.055h-11.479v4.741h10.137v3.931h-10.137v5.053h11.884 V41.862z"></path> <path fill="#21324D" d="M132.132,44.826c-1.82-0.977-3.244-2.324-4.273-4.04c-1.029-1.715-1.545-3.644-1.545-5.786 c0-2.141,0.515-4.07,1.545-5.785c1.029-1.716,2.453-3.063,4.273-4.04c1.819-0.977,3.862-1.466,6.129-1.466s4.305,0.489,6.114,1.466 s3.233,2.324,4.273,4.04c1.039,1.715,1.56,3.644,1.56,5.785c0,2.142-0.52,4.072-1.56,5.786c-1.041,1.716-2.465,3.063-4.273,4.04 c-1.809,0.977-3.847,1.466-6.114,1.466S133.95,45.803,132.132,44.826z M141.755,41.098c1.039-0.593,1.856-1.419,2.448-2.48 c0.593-1.06,0.888-2.266,0.888-3.619c0-1.35-0.296-2.557-0.888-3.617c-0.593-1.061-1.409-1.887-2.448-2.48 c-1.041-0.593-2.205-0.89-3.494-0.89s-2.453,0.297-3.493,0.89c-1.041,0.593-1.857,1.419-2.45,2.48 c-0.593,1.06-0.888,2.267-0.888,3.617c0,1.353,0.296,2.559,0.888,3.619c0.593,1.061,1.409,1.887,2.45,2.48 c1.039,0.593,2.203,0.888,3.493,0.888S140.714,41.691,141.755,41.098z"></path> <path fill="#3879FF" d="M169.125,25.05c1.424,0.645,2.522,1.559,3.291,2.744s1.154,2.589,1.154,4.211c0,1.602-0.385,3-1.154,4.196 s-1.867,2.111-3.291,2.744c-1.424,0.635-3.103,0.952-5.038,0.952h-4.398v6.02h-5.053V24.083h9.451 C166.022,24.083,167.701,24.405,169.125,25.05z M167.27,34.798c0.791-0.655,1.185-1.585,1.185-2.792 c0-1.226-0.395-2.168-1.185-2.823s-1.944-0.982-3.462-0.982h-4.117v7.58h4.117C165.325,35.78,166.479,35.452,167.27,34.798z"></path> <path fill="#3879FF" d="M181.711,28.2h-6.987v-4.117h19.028V28.2h-6.987v17.717h-5.054V28.2z"></path> <path fill="#3879FF" d="M197.09,24.083h5.053v21.834h-5.053V24.083z"></path> <path fill="#3879FF" d="M227.814,45.917l-0.033-13.101l-6.425,10.792h-2.277l-6.394-10.512v12.82h-4.741V24.083h4.18l8.174,13.568 l8.047-13.568h4.148l0.061,21.834H227.814z"></path> <path fill="#3879FF" d="M240.773,43.702c-1.736-1.726-2.604-4.19-2.604-7.392V24.083h5.054v12.04c0,3.91,1.622,5.864,4.866,5.864 c1.579,0,2.785-0.472,3.617-1.419c0.833-0.946,1.249-2.427,1.249-4.445v-12.04h4.991V36.31c0,3.202-0.868,5.666-2.604,7.392 s-4.166,2.589-7.285,2.589C244.938,46.292,242.509,45.428,240.773,43.702z"></path> <path fill="#3879FF" d="M265.728,45.59c-1.612-0.468-2.906-1.076-3.884-1.825l1.716-3.805c0.937,0.687,2.049,1.237,3.338,1.654 c1.29,0.415,2.577,0.623,3.866,0.623c1.437,0,2.495-0.213,3.183-0.64c0.685-0.425,1.028-0.993,1.028-1.699 c0-0.52-0.203-0.952-0.607-1.295c-0.406-0.343-0.927-0.618-1.561-0.826c-0.635-0.208-1.493-0.437-2.571-0.687 c-1.665-0.395-3.026-0.789-4.087-1.185c-1.061-0.395-1.97-1.029-2.729-1.903c-0.762-0.873-1.14-2.038-1.14-3.494 c0-1.268,0.343-2.417,1.031-3.446c0.685-1.029,1.719-1.845,3.102-2.448s3.074-0.905,5.069-0.905c1.394,0,2.754,0.166,4.087,0.499 c1.33,0.333,2.495,0.811,3.493,1.435l-1.559,3.836c-2.018-1.142-4.036-1.715-6.052-1.715c-1.414,0-2.46,0.228-3.135,0.685 c-0.675,0.458-1.015,1.061-1.015,1.81c0,0.749,0.391,1.305,1.17,1.669c0.779,0.364,1.97,0.722,3.572,1.076 c1.665,0.395,3.026,0.789,4.087,1.184c1.061,0.396,1.97,1.019,2.729,1.872s1.14,2.007,1.14,3.462c0,1.248-0.35,2.386-1.046,3.415 c-0.698,1.029-1.741,1.845-3.135,2.448c-1.394,0.603-3.087,0.905-5.084,0.905C269.008,46.292,267.34,46.058,265.728,45.59z"></path> </g> <path fill="#6094FF" d="M39.291,20.948c-3.599-0.43-9.998-0.583-13.411-0.183c-0.454,0.046-0.877,0.108-1.268,0.169l3.412,10.078 l8.696,0.043l3.651-9.98C40.026,21.028,39.666,20.98,39.291,20.948z"></path> <path fill="#6094FF" d="M43.507,18.375l-3.396,7.388l-2.926,6.984H27.111L24.77,25.69l-2.833-7.425 C28.406,16.949,37.03,17.015,43.507,18.375z"></path> <polygon fill="#3879FF" points="60.204,34.079 61.05,33.908 65,43.779 52.929,52.471 49.486,67.004 39.148,69.97 40.163,53.338 42.823,39.226 51.369,38.475 53.013,38.307 54.726,34.961 "></polygon> <path fill="#3879FF" d="M59.847,32.982l-4.539,0.916l-2.256-6.769l-1.55,0.059l-8.234,0.358l7.063-16.215 c6.296,5.414,9.99,12.481,10.863,21.31L59.847,32.982z"></path> <path fill="#21324D" d="M59.847,32.982c0.124,0.36,0.249,0.72,0.358,1.096l-5.478,0.882l-1.832,0.481l-1.525,3.033l-8.546,0.751 l-1.894,0.184L38.551,54.96l-6.281,5.221l-6.002-5.329l-2.422-14.284l-1.893-0.458l-8.322-1.174l-2.466-3.12L4.775,34.3l0.427-1.467 l4.653,0.961l1.503,0.003l2.333-6.692l8.232,0.394l1.049,0.049l-0.919-2.24l2.723,0.382l2.341,7.057h10.074l2.926-6.984l3.036-0.408 l-0.928,2.236l1.049-0.045l8.234-0.358l2.304,6.706l1.503,0.003L59.847,32.982z"></path> <polygon fill="#83A7DC" points="53.051,27.129 55.307,33.898 53.805,33.895 51.501,27.189 "></polygon> <polygon fill="#83A7DC" points="54.726,34.961 53.013,38.307 51.369,38.475 52.894,35.442 "></polygon> <polygon fill="#183662" points="48.481,12.626 48.654,12.219 50.331,11.331 43.268,27.546 42.219,27.591 43.147,25.355 43.163,25.355 "></polygon> <path fill="#21324D" d="M48.481,12.626l-5.318,12.729h-0.016l-3.036,0.408l3.396-7.388l0.849-8.982 C45.795,9.897,47.076,11.026,48.481,12.626z"></path> <path fill="#3879FF" d="M21.333,9.092l-0.409-6.277C28.335-0.8,37.805-1.108,44.965,2.914l-0.609,6.478l-0.849,8.982 c-6.477-1.36-15.101-1.426-21.568-0.11L21.333,9.092z"></path> <polygon fill="#83A7DC" points="42.823,39.226 40.163,53.338 38.549,54.961 40.929,39.41 "></polygon> <polygon fill="#00FFD0" points="40.163,53.338 39.148,69.97 25.176,69.97 24.374,53.098 26.266,54.853 32.268,60.182 38.549,54.961 "></polygon> <g> <path fill="#00FFD0" d="M38.469,20.466L35.69,28.06l-6.709-0.041l-2.302-7.733C29.68,19.892,35.305,20.042,38.469,20.466z"></path> <path fill="#2A5BBF" d="M39.418,20.591l-3.209,9.828l-7.645-0.043l-3-9.924c0.344-0.061,0.716-0.121,1.115-0.166l2.302,7.733 l6.709,0.041l2.779-7.594C38.799,20.497,39.115,20.545,39.418,20.591z"></path> </g> <polygon fill="#3879FF" points="24.374,53.098 25.176,69.97 14.132,67.004 10.689,52.471 0,44.857 3.436,33.955 9.066,35.155 11.594,38.619 13.628,38.937 21.951,40.111 "></polygon> <path fill="#21324D" d="M24.771,25.691l-2.723-0.382L16.63,12.181c1.411-1.249,2.994-2.294,4.702-3.089l0.606,9.173L24.771,25.691z"></path> <polygon fill="#183662" points="23.843,40.569 26.266,54.853 24.374,53.098 21.951,40.111 "></polygon> <polygon fill="#183662" points="16.631,12.181 22.049,25.309 22.967,27.549 21.919,27.5 14.927,11.254 16.615,12.15 "></polygon> <path fill="#3879FF" d="M14.927,11.254L21.919,27.5l-8.232-0.394l-1.549-0.066l-2.286,6.754l-0.407-0.111l-5.458-1.168 C4.898,23.691,8.607,16.64,14.927,11.254z"></path> <polygon fill="#183662" points="13.687,27.106 11.354,33.798 9.852,33.795 12.138,27.04 "></polygon> <polygon fill="#183662" points="11.162,35.817 13.628,38.937 11.594,38.619 9.066,35.155 "></polygon> <path fill="#00FFD0" d="M43.672,38.493L43.672,38.493L43.672,38.493z"></path> <path fill="#00FFD0" d="M39.081,33.605c0.377,2.061,2.354,3.426,4.415,3.049s3.426-2.354,3.049-4.415 c-0.069-0.377-0.207-0.721-0.374-1.045l-7.11,1.301C39.02,32.857,39.012,33.227,39.081,33.605z"></path> <path fill="#00FFD0" d="M24.82,33.605c-0.377,2.061-2.354,3.426-4.415,3.049s-3.426-2.354-3.049-4.415 c0.069-0.377,0.207-0.721,0.374-1.045l7.11,1.301C24.881,32.857,24.889,33.227,24.82,33.605z"></path> <rect x="30.222" y="63.001" fill="#3879FF" width="4.092" height="6.969"></rect> <polygon fill="#00FFD0" points="30.379,35.961 34.157,35.961 34.157,48.215 32.269,48.89 30.379,48.215 "></polygon> <polygon fill="#00FFD0" points="3.987,47.697 14.927,49.964 14.132,67.004 10.689,52.471 "></polygon> <polygon fill="#00FFD0" points="59.631,47.697 48.691,49.964 49.486,67.004 52.929,52.471 "></polygon> <g> <path fill="none" stroke="#FFFFFF" stroke-width="0.5" stroke-miterlimit="10" d="M60.205,34.078"></path> <path fill="none" stroke="#FFFFFF" stroke-width="0.5" stroke-miterlimit="10" d="M44.356,9.392l0.609-6.478 c-7.16-4.022-16.63-3.714-24.041-0.099l0.408,6.277c-1.708,0.795-3.291,1.84-4.701,3.088l-0.016-0.03l-1.688-0.896 C8.607,16.64,4.898,23.691,3.987,32.515l1.215,0.318l-0.411,1.411l-1.355-0.289L0,44.857l3.987,2.84l0,0l6.702,4.774l3.443,14.533 l11.044,2.966h5.046h4.092h4.834l10.338-2.966l3.443-14.533l6.702-4.774l-0.101,0.021L65,43.779l-3.95-9.871l-0.846,0.171 l-0.357-1.097l1.347-0.341c-0.873-8.829-4.567-15.896-10.863-21.31l-1.677,0.888l-0.173,0.407 C47.076,11.026,45.795,9.897,44.356,9.392L44.356,9.392z"></path> </g> </svg> 